<svg clip-rule="evenodd" fill-rule="evenodd" stroke-linejoin="round" stroke-miterlimit="2" viewBox="0 0 510 510" xmlns="http://www.w3.org/2000/svg"><g><g fill="#9bc9ff"><path d="m382.124 391.208-8.989 8.989c-6.584 6.583-14.596 9.902-23.907 9.902h-300.424c-18.621 0-33.809-15.188-33.809-33.81v-244.865h419.236v193.671c0 9.311-3.318 17.323-9.902 23.907l-20.807 20.807-31.987-31.353c13.613-19.457 21.599-43.139 21.599-68.684 0-66.269-53.713-119.962-119.962-119.962-66.268 0-119.961 53.693-119.961 119.962 0 66.248 53.693 119.961 119.961 119.961 29.792 0 57.049-10.862 78.026-28.842zm-266.282-215.409h-56.027c-2.034 0-3.683 1.649-3.683 3.683v182.811c0 2.034 1.649 3.682 3.683 3.682h56.027c2.034 0 3.683-1.648 3.683-3.682v-182.811c0-2.034-1.649-3.683-3.683-3.683z"/><path d="m75.263 29.44h16.76c4.654 0 8.452 3.796 8.452 8.452v51.27c0 4.655-3.798 8.453-8.452 8.453h-16.76c-4.656 0-8.452-3.798-8.452-8.453v-51.27c0-4.656 3.796-8.452 8.452-8.452zm281.941 0h16.759c4.656 0 8.453 3.796 8.453 8.452v51.27c0 4.655-3.797 8.453-8.453 8.453h-16.759c-4.655 0-8.453-3.798-8.453-8.453v-51.27c0-4.656 3.798-8.452 8.453-8.452zm-93.98 0h16.76c4.655 0 8.451 3.796 8.451 8.452v51.27c0 4.655-3.796 8.453-8.451 8.453h-16.76c-4.656 0-8.453-3.798-8.453-8.453v-51.27c0-4.656 3.797-8.452 8.453-8.452zm-93.982 0h16.761c4.656 0 8.452 3.796 8.452 8.452v51.27c0 4.655-3.796 8.453-8.452 8.453h-16.761c-4.655 0-8.451-3.798-8.451-8.453v-51.27c0-4.656 3.796-8.452 8.451-8.452z"/><path d="m468.163 477.277 23.778-24.525c4.179-4.3 4.078-11.243-.222-15.422l-65.885-63.927c-4.299-4.178-11.243-4.057-15.421.242l-23.779 24.506c-4.178 4.299-4.077 11.243.222 15.421l65.885 63.927c4.3 4.179 11.244 4.078 15.422-.222z"/><path d="m273.172 178.972c50.133 0 90.8 40.648 90.8 90.8 0 50.132-40.667 90.8-90.8 90.8-50.151 0-90.8-40.668-90.8-90.8 0-50.152 40.649-90.8 90.8-90.8zm-11.907 98.808-20.292-20.292c-5.256-5.256-13.79-5.256-19.046 0-5.256 5.283-5.256 13.79 0 19.046l29.828 29.855c5.256 5.256 13.79 5.256 19.046 0 17.989-17.989 35.761-36.168 53.669-54.238 5.229-5.283 5.202-13.79-.054-19.019-5.256-5.228-13.79-5.201-19.019.055z"/></g><path d="m7.003 376.299v-284.841c0-23.027 18.781-41.81 41.809-41.81h10.007v-11.746c0-9.063 7.389-16.452 16.452-16.452h16.76c9.06 0 16.452 7.389 16.452 16.452v11.746h44.316v-11.746c0-9.063 7.39-16.452 16.451-16.452h16.761c9.062 0 16.452 7.389 16.452 16.452v11.746h44.316v-11.746c0-9.063 7.39-16.452 16.453-16.452h16.76c9.061 0 16.451 7.389 16.451 16.452v11.746h44.316v-11.746c0-9.063 7.392-16.452 16.453-16.452h16.759c9.063 0 16.452 7.389 16.452 16.452v11.746h10.007c23.028 0 41.809 18.783 41.809 41.81v233.647c0 6.261-1.239 12.042-3.653 17.329-2.025 4.432-4.88 8.523-8.592 12.235l-8.069 8.069c3.466.676 6.776 2.319 9.48 4.937l.006.006 65.868 63.924c7.452 7.215 7.661 19.221.386 26.732l-.006.007-23.77 24.486-.008.008c-7.209 7.438-19.199 7.642-26.701.436-.011-.01-.021-.02-.031-.03 0 0-65.832-63.921-65.832-63.921-3.081-2.97-4.927-6.757-5.529-10.704-2.879 2.403-5.959 4.346-9.225 5.837-5.286 2.414-11.067 3.652-17.327 3.652h-300.424c-23.028 0-41.809-18.781-41.809-41.809zm51.816-310.651h-10.007c-14.215 0-25.809 11.595-25.809 25.81v31.976h403.236v-31.976c0-14.215-11.594-25.81-25.809-25.81h-10.007v23.524c0 9.061-7.389 16.452-16.452 16.452h-16.759c-9.061 0-16.453-7.391-16.453-16.452v-23.524h-44.316v23.524c0 9.061-7.39 16.452-16.451 16.452h-16.76c-9.063 0-16.453-7.391-16.453-16.452v-23.524h-44.316v23.524c0 9.061-7.39 16.452-16.452 16.452h-16.761c-9.061 0-16.451-7.391-16.451-16.452v-23.524h-44.316v23.524c0 9.061-7.392 16.452-16.452 16.452h-16.76c-9.063 0-16.452-7.391-16.452-16.452zm33.664 23.524v-51.27c0-.249-.203-.452-.452-.452h-16.76c-.249 0-.453.203-.453.452v51.27c0 .249.204.452.453.452h16.76c.249 0 .452-.203.452-.452zm93.98 0v-51.27c0-.249-.203-.452-.452-.452h-16.761c-.249 0-.451.203-.451.452v51.27c0 .249.202.452.451.452h16.761c.249 0 .452-.203.452-.452zm93.98 0v-51.27c0-.249-.202-.452-.451-.452h-16.76c-.25 0-.453.203-.453.452v51.27c0 .249.203.452.453.452h16.76c.249 0 .451-.203.451-.452zm93.981 0v-51.27c0-.249-.204-.452-.453-.452h-16.759c-.25 0-.453.203-.453.452v51.27c0 .249.203.452.453.452h16.759c.249 0 .453-.203.453-.452zm29.086 269.353 15.17-15.17c2.301-2.301 4.097-4.82 5.352-7.568 1.487-3.256 2.207-6.826 2.207-10.682v-185.671h-403.236v236.865c0 14.215 11.594 25.81 25.809 25.81h300.424c3.856 0 7.425-.721 10.681-2.207 2.749-1.255 5.268-3.051 7.569-5.352l3.312-3.313-20.185-19.588c-21.496 16.365-48.329 26.08-77.434 26.08-70.668 0-127.945-57.277-127.945-127.945s57.277-127.945 127.945-127.945c70.669 0 127.946 57.277 127.946 127.945 0 24.843-7.079 48.031-19.329 67.657zm-15.692 26.934 9.93-10.229-25.368-24.631c-3.011 3.691-6.223 7.211-9.621 10.542l24.921 24.183zm74.583 86.234 23.772-24.487c1.117-1.154 1.121-2.998-.024-4.107l-.006-.006-65.869-63.924c-1.144-1.108-2.998-1.088-4.106.057l-.007.007-23.778 24.494c-.005.006-.01.011-.016.016-1.105 1.133-1.084 2.966.057 4.062.01.01.02.02.031.03 0 0 65.816 63.907 65.839 63.929 1.162 1.086 2.995 1.078 4.1-.063zm-334.868-295.885v190.177c0 4.418-3.582 8-8 8h-63.393c-4.418 0-8-3.582-8-8v-190.177c0-4.418 3.582-8 8-8h63.393c4.418 0 8 3.582 8 8zm-16 55.392v-47.392h-47.393v47.392zm0 63.393v-47.393h-47.393v47.393zm-47.393 16v47.392h47.393v-47.392zm209.039-152.754c-61.83 0-111.945 50.114-111.945 111.945s50.115 111.945 111.945 111.945c61.831 0 111.946-50.114 111.946-111.945s-50.115-111.945-111.946-111.945zm.014 210.743c-54.418 0-98.812-44.367-98.812-98.785 0-54.417 44.395-98.812 98.812-98.812 54.418 0 98.785 44.394 98.785 98.812 0 54.419-44.366 98.785-98.785 98.785zm0-16c45.605 0 82.785-37.18 82.785-82.785s-37.18-82.812-82.785-82.812c-45.606 0-82.812 37.207-82.812 82.812 0 45.606 37.207 82.785 82.812 82.785zm-11.95-86.136 38.476-38.877.015-.015c8.339-8.382 21.95-8.423 30.332-.083 8.378 8.335 8.433 21.896.098 30.317l-.004.004c-17.916 18.079-35.697 36.266-53.694 54.263-8.378 8.378-21.982 8.378-30.359 0l-29.829-29.855c-8.374-8.374-8.388-21.927-.014-30.345l.014-.014c8.378-8.378 21.982-8.378 30.36 0zm-5.627 17-20.292-20.291c-2.131-2.132-5.59-2.134-7.725-.008-2.13 2.15-2.142 5.604-.007 7.739l29.828 29.856c2.134 2.133 5.598 2.133 7.732 0 17.979-17.98 35.742-36.149 53.64-54.209 2.122-2.145 2.123-5.597-.01-7.719-2.129-2.118-5.583-2.105-7.702.021l-44.121 44.582c-1.498 1.513-3.537 2.367-5.666 2.373-2.129.005-4.172-.838-5.677-2.344z" fill="#69f"/></g></svg>