<svg id="Layer_1" enable-background="new 0 0 512 512" viewBox="0 0 512 512" xmlns="http://www.w3.org/2000/svg"><g clip-rule="evenodd" fill-rule="evenodd"><path d="m144.51 112.397v-25.289c0-11.829 9.615-21.444 21.444-21.444h117.357l-.728 4.622c-.565 3.589-.85 7.22-.85 10.853 0 8.843 1.69 17.56 5 25.76l2.219 5.497h-144.442zm275.489-31.257c0-3.628-.28-7.256-.857-10.839l-.747-4.636h15.419c11.829 0 21.439 9.616 21.439 21.444v25.289h-42.464l2.215-5.495c3.306-8.203 4.995-16.921 4.995-25.763zm-73.658 23.434c-2.206 2.207-5.8 2.207-8.006.001l-21.411-21.407c-1.068-1.068-1.661-2.497-1.661-4.005 0-1.506.59-2.928 1.653-3.997 1.068-1.074 2.497-1.664 4.008-1.664 1.514 0 2.938.584 4.011 1.657l14.549 14.559c.747.747 1.772 1.172 2.838 1.172 1.057-.005 2.079-.429 2.829-1.186l31.677-31.993c1.059-1.069 2.484-1.661 3.986-1.661h.099l.099.005c1.436.071 2.765.618 3.792 1.641 2.205 2.195 2.208 5.77.02 7.979-4.785 4.831-9.556 9.678-14.331 14.52-8.035 8.141-16.066 16.288-24.152 24.379zm-136.802 60.438-.018 16.425h-31.238v-9.385c0-3.857 3.182-7.041 7.041-7.041h24.215zm-.014 24.429v19.202h-31.243v-19.202zm66.447 27.206v9.385c0 3.86-3.181 7.041-7.041 7.041h-83.608c-3.86 0-7.041-3.181-7.041-7.041v-9.385zm-58.45-8.004.012-43.631h19.197v43.631zm27.212-19.202h31.238v19.202h-31.238zm0-8.003v-16.425h24.197c3.858 0 7.041 3.183 7.041 7.041v9.385h-31.238zm-177.807 185.075c-.36-2.456-2.65-4.164-5.107-3.804-2.459.36-4.16 2.649-3.8 5.107.361 2.465 2.64 4.159 5.105 3.8 2.459-.359 4.162-2.643 3.802-5.103zm76.874 99.35c1.11 1.961 1.377 4.288.772 6.457-.604 2.167-2.023 4.005-3.982 5.113l-23.808 13.471c-1.957 1.107-4.274 1.38-6.442.785-2.176-.598-4.021-2.022-5.133-3.986l-69.986-123.677c-2.285-4.038-.837-9.291 3.202-11.575l23.807-13.466c1.269-.718 2.695-1.098 4.153-1.098.76 0 1.514.103 2.249.297l.08.022c2.161.618 3.983 2.022 5.092 3.98z" fill="#9bc9ff"/><path d="m319.751 77.986c.4-.4.861-.485 1.172-.485.32 0 .777.085 1.181.485l14.549 14.558c1.497 1.497 3.539 2.344 5.658 2.344h.019c2.132-.009 4.17-.861 5.663-2.372l31.677-31.993c.391-.391.842-.476 1.144-.476.287.014.767.08 1.167.48.64.636.64 1.68 0 2.33-4.792 4.834-9.56 9.677-14.337 14.525-7.903 8.007-16.065 16.286-24.132 24.363-.65.645-1.709.645-2.349 0l-21.411-21.407c-.4-.4-.49-.861-.49-1.177 0-.314.089-.77.489-1.175zm-11.32 13.664 21.411 21.407c3.441 3.445 7.969 5.168 12.487 5.168 4.523 0 9.051-1.723 12.492-5.168 8.12-8.115 16.3-16.418 24.208-24.443 4.773-4.834 9.541-9.673 14.323-14.497 6.839-6.9 6.801-18.088-.08-24.932-3.351-3.333-7.78-5.145-12.52-5.135-4.711.014-9.141 1.869-12.45 5.22l-26.02 26.274-8.872-8.868c-3.328-3.337-7.766-5.173-12.487-5.173s-9.15 1.836-12.492 5.173c-3.328 3.337-5.168 7.771-5.168 12.487s1.84 9.154 5.168 12.487zm97.771 124.106c0 4.415-3.582 7.997-8.002 7.997h-66.22c-4.406 0-7.997-3.582-7.997-7.997 0-4.42 3.592-8.002 7.997-8.002h66.221c4.419.001 8.001 3.583 8.001 8.002zm28.953-37.227c0 4.42-3.582 8.002-8.002 8.002h-95.173c-4.406 0-7.997-3.582-7.997-8.002 0-4.415 3.592-7.997 7.997-7.997h95.173c4.42.001 8.002 3.583 8.002 7.997zm-166.224 50.543h-83.608c-1.652 0-3.041-1.389-3.041-3.041v-5.385h89.69v5.385c0 1.652-1.389 3.041-3.041 3.041zm-83.608-60.06h20.211l-.009 8.425h-23.243v-5.385c0-1.647 1.388-3.04 3.041-3.04zm86.649 3.041v5.385h-23.238v-8.425h20.197c1.652-.001 3.041 1.392 3.041 3.04zm-23.238 21.388h23.238v11.202h-23.238zm-27.201-24.429h11.198v35.631h-11.207zm-16.008 35.631h-23.243v-11.202h23.243zm63.406-51.63h-83.608c-10.501 0-19.039 8.538-19.039 19.039v53.979c0 10.501 8.538 19.044 19.039 19.044h83.608c10.501 0 19.039-8.543 19.039-19.044v-53.979c0-10.5-8.538-19.039-19.039-19.039zm-102.977-83.349h112.678c-.589 3.737-.899 7.573-.899 11.476 0 9.635 1.888 18.827 5.291 27.257h-134.514v-21.289c0-9.621 7.823-17.444 17.444-17.444zm184.91-45.661c-31.503 0-57.132 25.634-57.132 57.137 0 31.508 25.629 57.137 57.132 57.137 31.508 0 57.137-25.629 57.137-57.137 0-31.504-25.63-57.137-57.137-57.137zm82.949 45.661c9.621 0 17.439 7.823 17.439 17.444v21.289h-32.539c3.398-8.43 5.286-17.622 5.286-27.257 0-3.902-.306-7.738-.908-11.476zm0 198.866c9.621 0 17.439-7.828 17.439-17.448v-126.682h-41.458c-13.33 18.103-34.77 29.879-58.93 29.879-24.151 0-45.6-11.777-58.921-29.879h-143.433v126.681c0 9.621 7.823 17.448 17.444 17.448h267.859zm-267.859 15.999h267.859c18.437 0 33.438-15.005 33.438-33.447v-163.974c0-18.442-15.001-33.443-33.438-33.443h-15.18c-10.892-26.749-37.151-45.666-67.77-45.666-30.614 0-56.874 18.917-67.76 45.666h-117.149c-18.442 0-33.442 15.001-33.442 33.443v163.974c0 18.441 15 33.447 33.442 33.447zm-95.07 81.405c.678 4.65-2.542 8.962-7.183 9.64-4.651.678-8.957-2.532-9.64-7.178-.678-4.641 2.532-8.962 7.178-9.645 4.642-.678 8.963 2.542 9.645 7.183zm396.268-13.038-153.99 94.815c-12.087 7.441-25.37 9.315-39.458 5.53l-111.694-29.925c-2.048-.551-4.227-.264-6.067.8l-16.568 9.569-41.519-73.38 62.846-36.389c14.06-8.143 29.248-14.963 45.144-9.809 5.149 1.666 11.085 3.817 17.957 6.307 19.741 7.131 44.273 15.999 69.751 20.659 8.609 3.031 13.419 11.343 11.221 19.543-2.881 10.769-11.894 12.106-19.063 11.301-12.478-2.575-24.339-5.949-36.902-9.541-5.959-1.704-12.12-3.464-18.456-5.159-4.26-1.144-8.651 1.389-9.79 5.658-1.153 4.269 1.379 8.651 5.648 9.8 6.208 1.662 12.313 3.398 18.211 5.093 12.958 3.695 25.201 7.187 38.399 9.889.052.009.099.019.16.028.052.009.099.019.151.028l10.562 1.723c15.886 2.537 29.988.057 43.11-7.583l84.846-49.418c24.179-14.083 42.743-15.589 49.662-4.043 4.749 7.94 2.65 20.301-4.161 24.504zm-326.432 118.35c.33-1.172.184-2.382-.4-3.413l-69.996-123.678c-.584-1.031-1.544-1.77-2.711-2.104-.409-.108-.819-.165-1.229-.165-.763 0-1.511.198-2.184.579l-23.807 13.466c-2.114 1.2-2.89 4.001-1.69 6.124l69.987 123.678c.584 1.031 1.553 1.779 2.711 2.099 1.172.32 2.382.184 3.412-.409l23.808-13.471c1.031-.579 1.779-1.548 2.099-2.706zm344.323-151.072c-4.5-7.498-22.941-29.813-71.441-1.572l-84.851 49.422c-3.869 2.259-7.79 3.902-11.871 4.952 1.421-2.471 2.542-5.22 3.351-8.223 4.401-16.427-5.361-33.588-22.221-39.048-.339-.108-.687-.202-1.04-.269-24.349-4.391-48.396-13.08-67.727-20.07-6.721-2.429-13.071-4.721-18.47-6.481-21.901-7.103-41.651 1.671-58.092 11.188l-62.71 36.309-5.719-10.106c-2.688-4.754-7.079-8.171-12.369-9.639-5.281-1.459-10.807-.791-15.561 1.897l-23.807 13.481c-9.833 5.559-13.302 18.093-7.743 27.921l70.001 123.678c2.678 4.749 7.079 8.171 12.36 9.64 1.831.499 3.681.748 5.531.748 3.478 0 6.928-.89 10.03-2.645l23.812-13.48c4.749-2.692 8.176-7.079 9.639-12.361 1.469-5.29.786-10.812-1.902-15.561l-6.98-12.351 13.81-7.978 108.489 29.07c6.039 1.619 12.04 2.429 17.952 2.429 11.946 0 23.487-3.29 34.04-9.79l153.986-94.82c14.242-8.771 18.77-30.851 9.503-46.341z" fill="#69f"/></g></svg>