<svg id="Layer_1" enable-background="new 0 0 512 512" viewBox="0 0 512 512" xmlns="http://www.w3.org/2000/svg"><g clip-rule="evenodd" fill-rule="evenodd"><path d="m209.606 356.659c0-25.584 20.811-46.391 46.394-46.391 25.587 0 46.398 20.802 46.398 46.391s-20.811 46.391-46.398 46.391c-25.583 0-46.394-20.807-46.394-46.391zm201.844-18.55c21.507 0 39 17.494 39 39 0 21.497-17.482 38.988-39.026 39.001-21.495-.013-38.974-17.506-38.974-39.001.001-21.507 17.493-39 39-39zm-166.271 97.011c-.052.065-.106.128-.161.189l-7.331 8.704-15.201-27.069 4.684-1.486c.678-.215 1.362-.406 2.046-.598l1.94-.547 19.098 14.788zm21.758.14c-.046-.052-.091-.106-.134-.161l-5.065-5.997 19.107-14.789 1.939.547c.684.193 1.368.383 2.045.598l4.683 1.486-15.191 27.063zm16.072-302.36h-11.502v-11.49c0-6.338 5.166-11.491 11.502-11.491 6.339 0 11.492 5.152 11.492 11.491s-5.154 11.49-11.492 11.49zm-42.521 0h-11.497c-6.338 0-11.492-5.151-11.492-11.489 0-6.339 5.153-11.491 11.492-11.491 6.336 0 11.497 5.154 11.497 11.491zm8.001 7.999h15.017v65.421h-15.017zm43.32 73.42v6.831c0 3.742-3.087 6.838-6.828 6.838h-57.962c-3.742 0-6.828-3.096-6.828-6.838v-6.831zm-10.829 21.671v6.829c0 3.748-3.095 6.84-6.842 6.84h-36.28c-3.748 0-6.838-3.093-6.838-6.84v-6.829zm-11.111 21.67v6.838c0 3.743-3.094 6.831-6.838 6.831h-14.062c-3.744 0-6.828-3.089-6.828-6.831v-6.838zm-208.31 119.449c0-21.501 17.487-39 38.991-39 21.507 0 39 17.493 39 39 0 21.491-17.477 38.988-38.97 39.001-.01 0-.02 0-.052 0-21.498-.013-38.969-17.505-38.969-39.001z" fill="#9bc9ff"/><path d="m336.17 85.991c-2.212-3.821-.894-8.722 2.927-10.92l13.601-7.861c3.831-2.21 8.721-.901 10.933 2.93 2.207 3.829.899 8.719-2.932 10.929l-13.601 7.85c-1.257.73-2.631 1.07-3.986 1.07-2.772 0-5.455-1.429-6.942-3.998zm-36.812-44.81 7.85-13.599c2.212-3.831 7.102-5.144 10.933-2.932 3.826 2.207 5.139 7.102 2.927 10.929l-7.85 13.601c-1.478 2.57-4.169 4-6.937 4-1.36 0-2.73-.349-3.991-1.07-3.831-2.21-5.139-7.1-2.932-10.929zm-150.989 28.959c2.207-3.831 7.097-5.14 10.932-2.93l13.596 7.85c3.831 2.209 5.144 7.11 2.932 10.931-1.483 2.57-4.17 3.998-6.942 3.998-1.36 0-2.729-.34-3.991-1.07l-13.596-7.85c-3.83-2.21-5.143-7.1-2.931-10.929zm42.558-34.561c-2.207-3.827-.899-8.721 2.932-10.929 3.831-2.212 8.721-.899 10.932 2.932l7.85 13.599c2.207 3.829.899 8.719-2.932 10.929-1.261.721-2.631 1.07-3.991 1.07-2.763 0-5.45-1.43-6.937-4zm57.072-3.87v-15.709c0-4.419 3.581-8 8.001-8 4.419 0 8 3.581 8 8v15.709c0 4.41-3.581 8-8 8-4.419.001-8.001-3.589-8.001-8zm27.508 97.191v-7.489c0-4.131 3.374-7.491 7.502-7.491 4.132 0 7.492 3.361 7.492 7.491 0 4.129-3.36 7.489-7.492 7.489zm-19.507-66.661c-32.35 0-58.672 26.331-58.672 58.68 0 15.039 4.32 22.441 9.803 31.8 6.207 10.611 13.798 23.59 16.448 49.601h12.909v-57.421h-7.497c-12.952 0-23.493-10.539-23.493-23.488 0-12.961 10.542-23.491 23.493-23.491 12.956 0 23.498 10.53 23.498 23.491v7.489h7.017v-7.489c0-12.961 10.542-23.491 23.503-23.491 12.952 0 23.489 10.53 23.489 23.491 0 12.949-10.537 23.488-23.489 23.488h-7.502v57.421h12.909c2.654-26.011 10.245-38.99 16.453-49.601 5.478-9.359 9.812-16.761 9.812-31.8.001-32.349-26.331-58.68-58.681-58.68zm7.031 205.091h-14.062c-1.539 0-2.828-1.3-2.828-2.831v-2.838h19.728v2.838c0 1.531-1.299 2.831-2.838 2.831zm11.107-21.67h-36.28c-1.539 0-2.838-1.3-2.838-2.84v-2.829h41.96v2.829c0 1.539-1.303 2.84-2.842 2.84zm13.671-27.341v2.831c0 1.539-1.299 2.838-2.828 2.838h-57.962c-1.529 0-2.828-1.3-2.828-2.838v-2.831zm-28.303-15.999h-7.017v-57.421h7.017zm-23.018-73.42h-7.497c-4.132 0-7.492-3.36-7.492-7.489 0-4.131 3.36-7.491 7.492-7.491 4.127 0 7.497 3.361 7.497 7.491zm-28.298 81.689v10.562c0 7.53 4.438 14.019 10.829 17.029v4.64c0 7.64 4.57 14.21 11.121 17.161v4.518c0 10.381 8.438 18.83 18.829 18.83h14.062c10.387 0 18.839-8.449 18.839-18.83v-4.518c6.542-2.951 11.111-9.521 11.111-17.161v-4.64c6.386-3.009 10.829-9.499 10.829-17.029v-10.57c1.628-27.151 8.358-38.65 14.872-49.781 5.897-10.08 11.996-20.5 11.996-39.88 0-41.179-33.499-74.679-74.678-74.679s-74.673 33.5-74.673 74.679c0 19.38 6.095 29.8 11.991 39.88 6.513 11.13 13.243 22.64 14.872 49.789zm153.85 277.41c-1.939-11.12-5.548-21.61-10.561-31.21 14.58-18.04 36.619-28.669 59.948-28.68h.024.019c36.431.011 67.289 25.191 75.111 59.89zm-88.02 0 4.062-4.489c1.708-1.89 2.419-4.48 1.897-6.98l-3.638-17.659c2.358-.401 4.429-1.84 5.619-3.951l16.543-29.479c14.928 7.78 27.446 19.56 36.129 34.03.226.509.508.989.847 1.451 4.763 8.269 8.278 17.369 10.278 27.079h-71.737zm-97.498-27.079c.339-.461.617-.941.847-1.451 8.669-14.47 21.201-26.25 36.13-34.03l16.542 29.479c1.191 2.111 3.257 3.55 5.619 3.96l-3.643 17.65c-.518 2.5.193 5.09 1.902 6.98l4.061 4.489h-71.741c2-9.708 5.529-18.808 10.283-27.077zm-75.991-32.811h.019.028c23.324.011 45.358 10.64 59.943 28.68-5.012 9.6-8.622 20.09-10.561 31.21h-124.54c7.821-34.699 38.68-59.879 75.111-59.89zm-34.972-51c0-19.299 15.7-35 34.991-35 19.3 0 35 15.702 35 35 0 19.29-15.691 34.99-34.972 35.001-.009 0-.019 0-.028 0 0 0-.009 0-.019 0-19.291-.011-34.972-15.711-34.972-35.001zm148.047-20.45c0-23.38 19.022-42.391 42.394-42.391 23.38 0 42.398 19.011 42.398 42.391s-19.018 42.391-42.398 42.391c-23.371 0-42.394-19.01-42.394-42.391zm56.353 75.98 3.699 4.381 9.963-17.749c-.631-.2-1.28-.38-1.92-.561l-14.213 11.001 2.424 2.87c.018.019.028.04.047.058zm-39.66-13.929c-.64.18-1.29.361-1.92.561l9.968 17.749 3.69-4.381c.024-.018.033-.039.052-.059l2.419-2.87zm25.701-.331-4.17-3.23c1.379-.059 2.772-.099 4.17-.099s2.791.04 4.17.099zm7.488 57.41-7.488 8.28-7.492-8.28 7.102-34.42.391-.46.391.46zm112.962-98.68c0-19.299 15.7-35 35-35s35 15.702 35 35c0 19.29-15.69 34.99-34.981 35.001-.009 0-.009 0-.019 0-.009 0-.024 0-.024 0-19.285-.011-34.976-15.711-34.976-35.001zm127.501 118.04c-3.902-36.51-28.463-66.08-61.35-77.698 12.057-9.341 19.846-23.941 19.846-40.341 0-28.119-22.877-51-50.996-51-28.12 0-51.001 22.88-51.001 51 0 16.421 7.808 31.041 19.898 40.38-14.359 5.102-27.367 13.681-37.748 25.09-13.158-17.77-31.64-31.23-53.001-38.199 14.98-10.58 24.802-28.02 24.802-47.72 0-32.201-26.199-58.39-58.399-58.39s-58.39 26.189-58.39 58.39c0 19.7 9.808 37.14 24.797 47.72-21.366 6.969-39.848 20.43-53.006 38.199-10.382-11.409-23.39-19.988-37.753-25.09 12.09-9.339 19.903-23.959 19.903-40.38 0-28.119-22.882-51-51.001-51s-50.992 22.88-50.992 51c0 16.4 7.779 31.001 19.841 40.341-32.887 11.619-57.449 41.188-61.35 77.698-.249 2.261.48 4.511 2 6.201 1.52 1.689 3.68 2.651 5.948 2.651h239.993.008.009 99.07.019 140.899c2.273 0 4.433-.962 5.953-2.651 1.521-1.69 2.25-3.94 2.001-6.201z" fill="#69f"/></g></svg>