<svg id="Layer_1" enable-background="new 0 0 512 512" height="512" viewBox="0 0 512 512" width="512" xmlns="http://www.w3.org/2000/svg"><g clip-rule="evenodd" fill-rule="evenodd"><path d="m52.873 378.497c-.217-1.488-1.598-2.525-3.088-2.308-1.495.218-2.523 1.609-2.306 3.102.218 1.497 1.611 2.507 3.102 2.291 1.49-.217 2.509-1.598 2.292-3.085zm214.792-177.117c-.01 0-.021 0-.053 0-25.838-.016-46.85-21.033-46.85-46.872 0-25.851 21.02-46.877 46.872-46.877 25.849 0 46.882 21.027 46.882 46.877-.001 25.84-21.013 46.857-46.851 46.872zm-143.001 266.907c1.093 1.931 1.358 4.21.77 6.343-.588 2.134-1.999 3.954-3.929 5.046l-21.642 12.247c-1.924 1.089-4.225 1.36-6.35.764-2.131-.598-3.935-1.99-5.029-3.923l-63.632-112.41c-2.256-3.985-.825-9.139 3.16-11.394l21.686-12.272c1.237-.684 2.624-1.048 4.038-1.048.762 0 1.53.101 2.264.305 2.139.594 3.951 1.985 5.048 3.923zm-60.024-153.276c-8.908-20.094-14.56-41.349-16.856-63.211l-.58-5.522h31.609l.519 4.417c2.004 17.073 6.443 33.71 13.209 49.511l1.747 4.08-27.393 15.81zm46.608-189.374-27.46-15.857 3.273-4.493c12.939-17.762 28.472-33.307 46.224-46.258l4.494-3.279 15.738 27.255-3.541 2.661c-13.74 10.325-25.855 22.565-36.074 36.382zm168.567-105.907-5.522-.581v31.603l4.415.52c42.34 4.983 81.208 24.812 110.242 56.032 30.969 33.302 48.013 76.689 48.013 122.165 0 7.451-.469 14.919-1.384 22.313-.186 1.506-1.463 2.628-2.979 2.628h-15.023l36.006 45.749 36.018-45.749h-19.257c-.859 0-1.656-.359-2.232-.995-.567-.627-.843-1.468-.758-2.309.733-7.184 1.099-14.416 1.099-21.637.001-107.554-81.668-198.495-188.638-209.739z" fill="#9bc9ff"/><path d="m267.634 196.381s-.009 0-.019 0c-23.082-.014-41.854-18.795-41.854-41.872 0-23.092 18.78-41.877 41.872-41.877 23.087 0 41.882 18.785 41.882 41.877 0 23.078-18.771 41.858-41.853 41.872-.009 0-.019 0-.028 0zm88.739 88.028h-177.468c8.618-41.628 45.299-72.015 88.71-72.03.009 0 .019.005.019.005.01 0 .019-.005.028-.005 43.412.015 80.092 30.402 88.711 72.03zm-30.859-129.901c0-31.913-25.959-57.876-57.881-57.876-31.912 0-57.871 25.963-57.871 57.876 0 19.463 9.673 36.7 24.443 47.196-38.841 12.746-68.033 47.168-72.604 89.854-.24 2.259.49 4.514 2.01 6.204 1.52 1.68 3.681 2.65 5.949 2.65h196.15c2.273 0 4.429-.97 5.95-2.65 1.52-1.69 2.254-3.944 2-6.204-4.571-42.687-33.748-77.108-72.599-89.854 14.781-10.496 24.453-27.733 24.453-47.196zm-267.694 223.267c.626 4.217-2.297 8.148-6.519 8.755-4.227.621-8.148-2.297-8.769-6.519-.607-4.227 2.311-8.148 6.533-8.769 4.218-.608 8.148 2.31 8.755 6.533zm359.831-12.483-139.968 86.192c-10.821 6.66-22.701 8.327-35.302 4.947l-101.527-27.21c-2.052-.537-4.231-.259-6.072.8l-14.417 8.331-37.034-65.43 56.511-32.722c12.629-7.31 26.274-13.448 40.432-8.849 4.669 1.511 10.068 3.464 16.319 5.723 17.952 6.491 40.258 14.559 63.449 18.809 7.432 2.64 11.583 9.8 9.691 16.86-2.49 9.291-10.299 10.449-16.54 9.738-11.292-2.33-22.042-5.399-33.419-8.651-5.422-1.539-11.033-3.149-16.804-4.688-4.26-1.139-8.647 1.388-9.785 5.662-1.153 4.26 1.388 8.647 5.648 9.786 5.639 1.511 11.188 3.102 16.549 4.632 11.791 3.37 35.212 9.051 35.269 9.061l9.593 1.558c14.619 2.339 27.601.061 39.67-6.966l77.127-44.932c21.595-12.572 38.093-14.041 44.15-3.921 4.142 6.909 2.354 17.65-3.54 21.27zm-297.036 108.009c.136-.508.287-1.506-.301-2.551l-63.619-112.419c-.593-1.04-1.53-1.426-2.033-1.568-.226-.061-.546-.122-.927-.122-.471 0-1.04.104-1.619.424l-21.642 12.247c-1.582.899-2.161 2.989-1.271 4.58l63.632 112.41c.588 1.04 1.52 1.431 2.029 1.572.499.141 1.501.287 2.537-.301l21.642-12.247c1.04-.585 1.43-1.527 1.572-2.025zm248.377-139.178-77.127 44.918c-2.932 1.713-5.912 3.031-8.971 3.958.941-1.887 1.709-3.925 2.297-6.119 4.1-15.307-4.975-31.286-20.677-36.379-.339-.108-.692-.198-1.04-.259-22.08-3.982-43.901-11.871-61.439-18.211-6.124-2.221-11.899-4.297-16.822-5.898-20.178-6.552-38.309 1.502-53.39 10.228l-56.37 32.633-4.839-8.543c-2.541-4.49-6.688-7.719-11.682-9.098-4.989-1.388-10.209-.748-14.7 1.789l-21.637 12.252c-9.291 5.248-12.572 17.091-7.31 26.378l63.618 112.41c2.542 4.49 6.688 7.733 11.682 9.112 1.727.48 3.478.706 5.22.706 3.299 0 6.547-.838 9.48-2.495l21.637-12.252c4.49-2.542 7.733-6.689 9.113-11.678 1.379-4.994.739-10.214-1.803-14.704l-5.987-10.586 11.668-6.74 98.331 26.34c5.549 1.487 11.07 2.226 16.512 2.226 10.986 0 21.609-3.027 31.315-9l139.973-86.188c13.269-8.171 17.5-28.721 8.877-43.12-4.18-6.971-21.266-27.69-65.929-1.68zm-232.76-271.055 10.741 18.602c-14.111 10.604-26.542 23.143-37.09 37.405l-18.781-10.845c12.652-17.368 27.78-32.505 45.13-45.162zm-60.676 54.661c-1.925-1.106-3.295-2.956-3.794-5.112s-.089-4.42 1.139-6.26c16.342-24.461 37.01-45.148 61.453-61.485 1.84-1.233 4.1-1.643 6.26-1.144 2.161.504 4.01 1.873 5.107 3.794l18.719 32.407c2.085 3.61 1.045 8.214-2.377 10.586-17.001 11.744-31.56 26.42-43.261 43.628-1.539 2.264-4.048 3.502-6.618 3.502-1.36 0-2.739-.348-4.001-1.073zm378.028 174.347 25.718-32.666h-8.957c-2.273 0-4.42-.956-5.94-2.641-1.52-1.676-2.255-3.921-2.024-6.171.711-6.975 1.073-14.083 1.073-21.129 0-105.5-80.233-193.843-184.162-204.768v21.605c43.351 5.102 83.359 25.375 113.318 57.593 31.823 34.219 49.352 78.812 49.352 125.57 0 7.649-.48 15.363-1.421 22.927-.49 4.006-3.897 7.014-7.941 7.014h-4.726zm44.4-41.731c-2.08-4.274-6.321-6.933-11.08-6.933h-7.884c.282-4.641.433-9.306.433-13.942 0-56.788-21.44-110.814-60.361-152.131-38.747-41.134-91.059-65.75-147.302-69.323-2.198-.137-4.368.635-5.978 2.151-1.61 1.511-2.518 3.624-2.518 5.832v37.566c0 4.18 3.21 7.658 7.38 7.978 87.077 6.717 155.289 80.483 155.289 167.927 0 4.641-.188 9.306-.569 13.942h-5.121c-4.763 0-8.999 2.655-11.08 6.933-2.08 4.278-1.539 9.258 1.407 12.996l33.311 42.31c2.353 2.989 5.884 4.702 9.682 4.702s7.319-1.723 9.668-4.702l33.31-42.31c2.942-3.738 3.479-8.717 1.413-12.996zm-428.722-104.361 18.95 10.944c-6.868 16.14-11.447 33.15-13.65 50.735h-21.807c2.26-21.393 7.79-42.07 16.507-61.679zm-25.21 77.678h37.712c4.147 0 7.611-3.173 7.969-7.31 1.803-20.772 7.183-40.729 15.97-59.316 1.789-3.766.381-8.27-3.229-10.351l-32.741-18.908c-1.92-1.106-4.213-1.37-6.321-.73-2.118.64-3.869 2.128-4.848 4.109-13.038 26.326-20.611 54.586-22.499 83.994-.141 2.203.64 4.373 2.146 5.982 1.511 1.617 3.634 2.53 5.841 2.53zm30.313 27.615c2.066 17.599 6.627 34.662 13.579 50.895l-18.733 10.812c-8.689-19.6-14.205-40.291-16.455-61.707zm-15.872 76.534c.979 1.981 2.739 3.474 4.858 4.109.762.231 1.544.353 2.32.353 1.393 0 2.773-.372 4.001-1.083l32.552-18.79c3.606-2.09 5.018-6.599 3.22-10.369-8.901-18.672-14.243-38.653-15.853-59.373-.315-4.165-3.799-7.38-7.978-7.38h-37.561c-2.207 0-4.33.913-5.841 2.527-1.506 1.61-2.287 3.78-2.146 5.982 1.887 29.443 9.437 57.717 22.428 84.024zm177.181-303.104v21.586c-17.67 2.048-34.761 6.58-50.962 13.523l-10.732-18.592c19.615-8.727 40.292-14.267 61.694-16.517zm-61.199 49.384c1.478 2.551 4.156 4.001 6.938 4.001 1.158 0 2.33-.254 3.441-.781 18.611-8.882 38.606-14.191 59.429-15.773 4.17-.315 7.39-3.794 7.39-7.978v-37.551c0-2.213-.913-4.326-2.532-5.837-1.605-1.511-3.765-2.292-5.978-2.151-29.409 1.878-57.678 9.447-84.008 22.504-1.991.979-3.474 2.735-4.109 4.853-.64 2.113-.381 4.401.73 6.312z" fill="#57a4ff"/></g></svg>