<svg id="Layer_1" enable-background="new 0 0 512 512" viewBox="0 0 512 512" xmlns="http://www.w3.org/2000/svg"><g clip-rule="evenodd" fill-rule="evenodd"><path d="m256.779 424.938c-.196.01-.392.013-.588.013-7.02 0-14.227-3.316-16.062-10.671-.531-2.129-2.719-3.438-4.846-2.907-2.135.533-3.453 2.702-2.92 4.841 2.045 8.206 8.541 13.831 16.617 15.869l3.021.762v4.806c0 2.212 1.79 4 4.002 4s3.997-1.788 3.997-4v-4.761l3.135-.694c4.708-1.043 9.591-3.303 12.792-7.009 3.068-3.552 4.257-7.931 3.693-12.574-1.456-11.986-12.232-16.341-22.918-18.095-5.905-.969-14.051-3.259-14.404-10.511-.297-6.102 4.474-9.904 9.916-11.145 7.428-1.695 15.174 1.391 18.228 8.66.853 2.032 3.209 2.995 5.241 2.142 2.026-.851 2.991-3.207 2.14-5.234-2.784-6.625-7.952-11.193-14.879-13.09l-2.943-.806v-4.823c0-2.207-1.789-4-3.997-4-2.207 0-4.002 1.792-4.002 4v4.863l-2.908.826c-8.788 2.495-15.244 9.588-14.785 18.997.564 11.565 10.924 16.346 21.1 18.017 6.581 1.08 15.328 3.309 16.277 11.168.288 2.388-.221 4.534-1.807 6.367-2.967 3.427-8.724 4.872-13.1 4.989zm137.19-365.097h-34.179v-34.177zm-213.589 36.88h-24.111v-24.111h24.111zm0 54.91v24.119h-24.111v-24.119zm0 79.029v24.11h-24.111v-24.11zm133.201 168.021c0 31.756-25.819 57.591-57.578 57.591s-57.579-25.834-57.579-57.591c0-31.752 25.826-57.579 57.579-57.579 31.752-.001 57.578 25.827 57.578 57.579z" fill="#9bc9ff"/><path d="m283.589 412.13c.72 5.911-.89 11.33-4.636 15.671-3.483 4.031-8.821 6.941-14.954 8.3v1.55c0 4.42-3.577 8-7.997 8s-8.002-3.58-8.002-8v-1.69c-9.748-2.46-17.171-9.349-19.52-18.78-1.068-4.28 1.539-8.62 5.832-9.689 4.278-1.07 8.628 1.539 9.696 5.819 1.412 5.66 7.343 7.64 12.181 7.64.141 0 .282 0 .419-.01 4.279-.099 8.491-1.579 10.242-3.609.551-.631 1.068-1.5.861-3.271-.212-1.701-.692-5.691-12.953-7.7-20.517-3.37-24.127-15.09-24.447-21.769-.532-10.791 6.519-19.87 17.688-23.04v-1.84c0-4.411 3.582-8 8.002-8s7.997 3.589 7.997 8v1.771c7.192 1.969 13.899 6.799 17.51 15.398 1.713 4.07-.207 8.761-4.279 10.471-4.071 1.71-8.759-.2-10.477-4.28-2.843-6.779-9.922-7.16-13.65-6.31-1.661.38-7.06 2-6.811 7.051.056 1.228.24 4.979 11.057 6.759 15.994 2.618 24.825 9.879 26.241 21.558zm-27.587 40.141c29.55 0 53.578-24.04 53.578-53.591 0-29.539-24.029-53.579-53.578-53.579-29.55 0-53.579 24.04-53.579 53.579.001 29.551 24.03 53.591 53.579 53.591zm0-123.169c-38.371 0-69.582 31.22-69.582 69.579 0 38.371 31.211 69.59 69.582 69.59 38.37 0 69.577-31.22 69.577-69.59 0-38.359-31.206-69.579-69.577-69.579zm-95.733-252.492h16.112v16.11h-16.112zm-7.997 32.11h32.11c4.42 0 7.997-3.58 7.997-8v-32.11c0-4.42-3.577-8-7.997-8h-32.11c-4.42 0-8.002 3.58-8.002 8v32.11c0 4.421 3.582 8 8.002 8zm66.678-36.289c0-4.42 3.582-8 8.002-8h93.309c4.42 0 8.002 3.58 8.002 8s-3.582 8-8.002 8h-93.309c-4.42 0-8.002-3.58-8.002-8zm0 24.46c0-4.409 3.582-8 8.002-8h132.781c4.42 0 7.997 3.591 7.997 8 0 4.42-3.577 8-7.997 8h-132.781c-4.42-.001-8.002-3.58-8.002-8zm-58.681 58.74h16.112v16.119h-16.112zm-15.999 24.119c0 4.411 3.582 8.002 8.002 8.002h32.11c4.42 0 7.997-3.591 7.997-8.002v-32.119c0-4.42-3.577-8-7.997-8h-32.11c-4.42 0-8.002 3.58-8.002 8zm74.68-3.83c0-4.42 3.582-8 8.002-8h132.781c4.42 0 7.997 3.58 7.997 8s-3.577 8-7.997 8h-132.781c-4.42 0-8.002-3.58-8.002-8zm0-24.459c0-4.42 3.582-8 8.002-8h93.309c4.42 0 8.002 3.579 8.002 8 0 4.411-3.582 8-8.002 8h-93.309c-4.42 0-8.002-3.589-8.002-8zm-58.681 83.199h16.112v16.11h-16.112zm-15.999 24.11c0 4.42 3.582 8 8.002 8h32.11c4.42 0 7.997-3.58 7.997-8v-32.11c0-4.42-3.577-8-7.997-8h-32.11c-4.42 0-8.002 3.58-8.002 8zm74.68-28.288c0-4.42 3.582-8.001 8.002-8.001h93.309c4.42 0 8.002 3.58 8.002 8.001 0 4.42-3.582 8-8.002 8h-93.309c-4.42-.001-8.002-3.581-8.002-8zm0 24.47c0-4.42 3.582-8.002 8.002-8.002h132.781c4.42 0 7.997 3.581 7.997 8.002 0 4.42-3.577 8-7.997 8h-132.781c-4.42-.001-8.002-3.581-8.002-8zm144.84-219.631 20.522 20.521h-20.522zm43.242 20.599-43.322-43.317c-3.017-3.012-6.858-4.603-11.108-4.603h-236.512c-8.67 0-15.721 7.051-15.721 15.721v367.251c0 8.66 7.051 15.709 15.721 15.709h34.92c.08 1.01.151 2.021.259 3.03 5.69 54.02 51.493 94.29 104.652 94.29 3.671 0 7.381-.19 11.109-.581 14.798-1.559 28.919-6.18 41.599-13.509.65 2.719 2.702 5.02 5.592 5.84.73.21 1.469.311 2.198.311 3.483 0 6.684-2.291 7.682-5.801l4.928-17.27c.682-2.361.221-4.909-1.219-6.9-1.45-1.98-3.728-3.199-6.189-3.289l-17.943-.64c-4.42-.119-8.119 3.289-8.28 7.709-.108 2.94 1.403 5.571 3.723 7.04-10.36 5.72-21.802 9.331-33.772 10.591-3.168.34-6.298.5-9.418.5-45.078 0-83.928-34.16-88.753-79.971-2-18.998 2.01-37.749 11.593-54.21 2.231-3.819.941-8.719-2.881-10.94-3.822-2.219-8.722-.93-10.939 2.89-8.091 13.891-12.793 29.15-13.961 44.91h-34.619v-366.679h231.418v35.978c0 6.54 5.319 11.861 11.862 11.861h35.979v318.84h-34.643c-.08-1-.146-2.009-.259-3.021-6.081-57.749-57.998-99.79-115.761-93.709-14.808 1.561-28.919 6.171-41.599 13.499-.65-2.719-2.697-5.02-5.578-5.839-4.265-1.21-8.679 1.25-9.894 5.501l-4.928 17.259c-.668 2.37-.221 4.911 1.219 6.9 1.45 1.99 3.732 3.199 6.189 3.29l17.943.651h.287c4.293 0 7.832-3.39 7.992-7.711.108-2.94-1.403-5.569-3.719-7.04 10.36-5.72 21.788-9.338 33.767-10.6 48.971-5.15 93.013 30.501 98.171 79.471 2 19-2.01 37.749-11.598 54.219-2.221 3.81-.932 8.709 2.89 10.94 1.266.73 2.65 1.081 4.02 1.081 2.758 0 5.436-1.421 6.919-3.971 8.091-13.889 12.789-29.159 13.961-44.92h34.897c8.67 0 15.721-7.049 15.721-15.709v-323.932c.004-4.26-1.587-8.11-4.595-11.12z" fill="#57a4ff"/></g></svg>